<?xml version="1.0" standalone="no"?>
<!DOCTYPE svg PUBLIC "-//W3C//DTD SVG 1.1//EN" "http://www.w3.org/Graphics/SVG/1.1/DTD/svg11.dtd" >
<!--
2013-9-30: Created.
-->
<svg>
<metadata>
Created by iconfont
</metadata>
<defs>

<font id="iconfont" horiz-adv-x="1024" >
  <font-face
    font-family="iconfont"
    font-weight="500"
    font-stretch="normal"
    units-per-em="1024"
    ascent="896"
    descent="-128"
  />
    <missing-glyph />
    
    <glyph glyph-name="x" unicode="x" horiz-adv-x="1001"
d="M281 543q-27 -1 -53 -1h-83q-18 0 -36.5 -6t-32.5 -18.5t-23 -32t-9 -45.5v-76h912v41q0 16 -0.5 30t-0.5 18q0 13 -5 29t-17 29.5t-31.5 22.5t-49.5 9h-133v-97h-438v97zM955 310v-52q0 -23 0.5 -52t0.5 -58t-10.5 -47.5t-26 -30t-33 -16t-31.5 -4.5q-14 -1 -29.5 -0.5
t-29.5 0.5h-32l-45 128h-439l-44 -128h-29h-34q-20 0 -45 1q-25 0 -41 9.5t-25.5 23t-13.5 29.5t-4 30v167h911zM163 247q-12 0 -21 -8.5t-9 -21.5t9 -21.5t21 -8.5q13 0 22 8.5t9 21.5t-9 21.5t-22 8.5zM316 123q-8 -26 -14 -48q-5 -19 -10.5 -37t-7.5 -25t-3 -15t1 -14.5
t9.5 -10.5t21.5 -4h37h67h81h80h64h36q23 0 34 12t2 38q-5 13 -9.5 30.5t-9.5 34.5q-5 19 -11 39h-368zM336 498v228q0 11 2.5 23t10 21.5t20.5 15.5t34 6h188q31 0 51.5 -14.5t20.5 -52.5v-227h-327z" />
    

    
    <glyph glyph-name="weixin" unicode="&#58883;" d="M669.029188 494.604186c10.181291 0 20.235686-0.748037 30.23789-1.865487C672.100256 619.271534 536.831031 713.269371 382.414962 713.269371c-172.618362 0-314.03484-117.659747-314.03484-267.066545 0-86.2422 47.044337-157.061129 125.674313-211.988112l-31.406554-94.467535 109.75511 55.05285c39.302708-7.78122 70.80955-15.765055 110.010947-15.765055 9.849726 0 19.624747 0.481977 29.323017 1.243317-6.144182 20.996197-9.69827 42.982954-9.69827 65.792449C402.040732 383.267449 519.845498 494.604186 669.029188 494.604186zM500.167537 579.743262c23.639342 0 39.302708-15.550161 39.302708-39.185464 0-23.536043-15.66439-39.300075-39.302708-39.300075-23.535984 0-47.146672 15.765055-47.146672 39.300075C453.021889 564.193101 476.632577 579.743262 500.167537 579.743262zM280.402504 501.2567c-23.537007 0-47.300174 15.765055-47.300174 39.300075 0 23.635303 23.76419 39.185464 47.300174 39.185464 23.53496 0 39.200373-15.550161 39.200373-39.185464C319.602877 517.021755 303.937464 501.2567 280.402504 501.2567zM955.617831 249.85288c0 125.543298-125.622123 227.882104-266.733643 227.882104-149.41292 0-267.090791-102.338806-267.090791-227.882104 0-125.770472 117.677871-227.879034 267.090791-227.879034 31.278636 0 62.837668 7.896854 94.243199 15.765055l86.119862-47.170323-23.612735 78.473259C908.675829 116.327794 955.617831 179.034974 955.617831 249.85288zM602.306891 289.141698c-15.638806 0-31.431114 15.549138-31.431114 31.416524 0 15.651468 15.792308 31.405267 31.431114 31.405267 23.73963 0 39.302708-15.754822 39.302708-31.405267C641.609599 304.690836 626.04652 289.141698 602.306891 289.141698zM775.027587 289.141698c-15.538518 0-31.201884 15.549138-31.201884 31.416524 0 15.651468 15.66439 31.405267 31.201884 31.405267 23.535984 0 39.300661-15.754822 39.300661-31.405267C814.329272 304.690836 798.563571 289.141698 775.027587 289.141698z"  horiz-adv-x="1024" />

    
    <glyph glyph-name="more" unicode="&#58910;" d="M423.59 102.742c0-49.62 40.38-90 90-90s90 40.38 90 90-40.38 90-90 90-90-40.38-90-90zM423.59 372.742c0-49.62 40.38-90 90-90s90 40.38 90 90-40.38 90-90 90-90-40.38-90-90zM423.59 642.742c0-49.62 40.38-90 90-90s90 40.38 90 90-40.38 90-90 90-90-40.38-90-90z"  horiz-adv-x="1024" />

    
    <glyph glyph-name="weibo" unicode="&#58890;" d="M-56.57 948.89v0 0zM743.314 420.4q-16.558 3.318-21.501 9.921t-1.659 12.145l3.318 5.508q1.094 1.094 2.224 3.318t4.414 9.391 4.978 14.334 2.753 17.652-0.564 19.877-6.638 20.407-13.805 19.877q-15.463 15.463-40.284 19.877t-49.641 0.564-46.885-9.921-36.4-11.581l-14.334-6.638q-11.050-3.318-18.218-4.414t-11.050 0.564-6.073 3.318-1.659 7.732 1.094 10.485 2.753 13.805 3.318 14.899q0 13.239-1.659 24.819t-7.167 25.914-15.994 23.161-26.48 14.334-41.379 3.318-57.372-13.239q-38.624-13.239-78.342-39.154t-68.951-54.052-53.523-54.618-37.53-43.038l-12.145-17.652q-36.4-47.451-54.052-94.901t-16.558-71.707v-23.161q6.638-52.958 32.551-94.901t61.785-67.857 84.415-44.132 93.242-26.48 94.337-11.581q81.662-6.638 169.36 12.675t163.289 66.763 106.481 113.649q18.747 38.624 19.313 72.836t-11.581 55.712-31.457 38.060-36.4 24.29-30.327 9.921zM406.816 77.265q-119.156-5.508-202.443 46.356t-83.285 131.301q0 78.342 82.756 135.15t203.007 62.35 203.007-39.718 82.756-123.569q0-79.438-84.415-142.882t-201.348-68.951zM374.83 382.906q-31.986-3.318-57.372-14.899t-39.718-26.48-24.29-31.986-13.805-33.646-4.978-30.327-1.094-21.501l1.094-8.827v-4.414q0-3.318 2.224-13.239t6.073-18.218 12.675-18.218 20.972-16.558q72.836-35.306 135.714-21.501t101.503 63.443q15.463 18.747 20.407 46.356t-2.224 55.712-24.819 51.299-52.394 35.871-80.003 7.167zM335.11 174.355q-6.638-1.094-12.675-0.564t-11.050 2.224-9.921 3.847-8.261 6.073-6.073 7.732-4.414 8.827-1.659 10.485q0 12.145 6.638 23.725t18.218 19.877 25.914 9.391q9.921 1.094 19.313-0.564t15.994-5.508 11.581-8.827 7.167-11.581 2.224-14.334q0-12.145-7.167-23.161t-19.313-18.747-26.48-8.827zM428.882 253.793q-7.732-5.508-15.994-4.978t-11.581 7.167l-2.224 4.414q-1.094 2.224-1.094 4.414v4.414q0 3.318 1.094 5.508l2.224 4.414q1.094 2.224 3.318 3.318l3.318 4.414q8.827 6.638 17.088 5.508t11.581-8.827q3.318-4.414 2.753-9.921t-3.318-10.485-7.167-9.391zM820.562 484.409q6.638 0 12.145 3.318t8.827 8.261 4.414 10.485q1.094 1.094 1.094 3.318 13.239 125.794-88.265 143.446-29.798 5.508-55.182 1.094-7.732 0-13.239-3.847t-9.391-9.921-3.847-12.675q0-11.050 7.732-18.747t18.747-7.732q86.075 19.877 92.677-55.182 2.224-18.747-2.224-35.306 0-11.050 7.732-18.747t18.747-7.732zM801.815 795.522q-48.545 11.050-130.207-4.414-1.094 0-2.224-1.094l-1.094-2.224-1.094-1.094q-12.145-3.318-19.877-13.805t-7.732-22.63q0-16.558 11.050-27.574t26.48-11.050h3.318q1.094 0 4.978 1.094t8.261 1.659 9.391 2.224 8.827 3.318 14.899 1.659 27.044-1.659 35.306-8.261 38.624-16.558 38.624-27.574 33.646-40.813q28.704-65.104 11.050-125.794 0-1.094-0.564-2.224t-1.659-5.508-2.224-8.261-2.224-9.921-1.094-10.485q0-9.921 5.508-16.558t13.805-9.391 19.313-2.753q30.893 0 36.4 37.53 13.239 43.038 14.899 82.192t-5.508 68.951-21.501 55.712-33.116 44.132-41.943 33.116-44.697 23.725-44.697 14.334z"  horiz-adv-x="1024" />

    
    <glyph glyph-name="qq" unicode="&#58952;" d="M855.859 268.429c-5.31 73.131-54.382 134.398-82.747 166.087 3.937 9.219 13.519 62.582-23.48 98.992 0.059 0.873 0.059 1.74 0.059 2.587 0 143.633-102.234 247.017-230.513 247.487-128.299-0.471-230.529-103.855-230.529-247.487 0-0.847-0.012-1.713 0.049-2.587-36.999-36.41-27.4-89.773-23.48-98.992-28.347-31.689-77.425-92.956-82.745-166.087-0.959-19.225 2.013-47.228 11.404-59.674 11.443-15.177 42.852 3.047 65.314 51.536 6.249-22.463 20.674-56.756 53.311-100.283-54.621-12.465-70.201-66.339-51.826-95.787 12.96-20.751 42.631-37.818 93.766-37.818 90.978 0 131.156 24.451 149.087 41.477 3.655 3.714 8.926 5.505 15.649 5.519 6.7-0.014 11.984-1.805 15.626-5.519 17.933-17.026 58.119-41.477 149.077-41.477 51.153 0 80.804 17.067 93.764 37.818 18.381 29.448 2.804 83.323-51.803 95.787 32.639 43.528 47.066 77.82 53.311 100.283 22.468-48.488 53.871-66.712 65.324-51.536 9.381 12.446 12.358 40.449 11.382 59.674z"  horiz-adv-x="1024" />

    
    <glyph glyph-name="ok-sign" unicode="&#58949;" d="M949.768 525.45l-91.178 91.545c-11.762 11.809-30.869 11.847-42.678 0.086l-99.82-99.42-306.765-309.955c-6.311-5.663-11.249-0.857-12.109 0.006l-190.893 196.231c-10.759 10.803-28.239 10.838-39.042 0.079l-95.188-94.806c-10.803-10.759-10.838-28.239-0.079-39.042l306.048-307.28c1.089-1.093 2.249-2.069 3.463-2.941 0.089-0.064 0.173-0.135 0.251-0.213v0c11.762-11.809 30.869-11.847 42.678-0.086l525.225 523.119c11.809 11.761 11.847 30.869 0.086 42.678z"  horiz-adv-x="1024" />

    
    <glyph glyph-name="administrator" unicode="&#58930;" d="M429.834 394.586h164.336v-63.515h-164.336v63.515zM635.258 288.729h-246.509v42.935c-157.036 0-287.591 0-287.591 0v-279.062c0-33.29 26.87-60.276 60.419-60.276h700.853c33.365 0 60.419 27.197 60.419 60.276l-0 279.062c0 0-130.559 0-287.591 0v-42.935zM903.93 669.816h-227.59c0 58.463-73.575 105.859-164.34 105.859-90.761 0-164.333-47.396-164.333-105.859h-227.59c-33.137 0-60.008-26.826-60.008-59.981v-176.438c0-33.126 27.054-59.981 60.008-59.981h268.672v63.515h246.509v-63.515h268.672c33.137 0 60 26.826 60 59.981v176.438c0.001 33.127-27.046 59.981-60 59.981zM388.749 669.816c0 35.077 55.182 63.515 123.251 63.515 68.076 0 123.258-28.437 123.258-63.515h-246.509z"  horiz-adv-x="1024" />

    
    <glyph glyph-name="delete" unicode="&#58972;" d="M775.673 594.938h-527.344c-14.556 0-26.367 11.813-26.367 26.367s11.813 26.367 26.367 26.367h527.344c14.556 0 26.367-11.813 26.367-26.367s-11.813-26.367-26.367-26.367v0zM749.302 67.594c0-29.109-23.625-52.734-52.734-52.734h-369.141c-29.109 0-52.734 23.625-52.734 52.734v474.609h474.609v-474.609zM432.898 726.773c0 14.554 11.813 26.367 26.367 26.367h105.469c14.554 0 26.367-11.813 26.367-26.367v-26.367h-158.203v26.367zM802.038 700.406h-158.203v52.734c0 29.109-23.625 52.734-52.734 52.734h-158.203c-29.109 0-52.734-23.625-52.734-52.734v-52.734h-158.203c-29.109 0-52.734-23.625-52.734-52.734v-52.734c0-29.109 23.625-52.734 52.734-52.734v-474.609c0-58.219 47.251-105.469 105.469-105.469h369.141c58.219 0 105.469 47.251 105.469 105.469v474.609c29.109 0 52.734 23.625 52.734 52.734v52.734c0 29.109-23.625 52.734-52.734 52.734v0zM512 67.594c14.554 0 26.367 11.813 26.367 26.367v316.406c0 14.554-11.813 26.367-26.367 26.367s-26.367-11.813-26.367-26.367v-316.406c0-14.556 11.813-26.367 26.367-26.367v0zM380.164 67.594c14.554 0 26.367 11.813 26.367 26.367v316.406c0 14.554-11.813 26.367-26.367 26.367s-26.367-11.813-26.367-26.367v-316.406c0-14.556 11.813-26.367 26.367-26.367v0zM643.836 67.594c14.554 0 26.367 11.813 26.367 26.367v316.406c0 14.554-11.813 26.367-26.367 26.367s-26.367-11.813-26.367-26.367v-316.406c0-14.556 11.813-26.367 26.367-26.367v0z"  horiz-adv-x="1024" />

    
    <glyph glyph-name="inactivated" unicode="&#59003;" d="M253.644 501.608c7.716 0 14.993 2.995 20.505 8.426 5.558 5.498 8.659 12.842 8.712 20.664 0.060 7.829-2.922 15.206-8.4 20.797-22.683 23.114-33.002 43.121-30.658 59.476 1.926 13.406 12.855 25.206 24.456 37.736 16.514 17.816 37.065 39.987 36.123 73.46-0.83 29.29-17.789 56.614-50.412 81.203-12.889 9.701-31.242 7.078-40.91-5.83-9.675-12.928-7.065-31.342 5.81-41.050 17.185-12.962 26.806-25.737 27.099-35.983 0.252-9.017-7.623-17.982-20.505-31.879-16.388-17.683-34.967-37.736-39.502-69.31-5.073-35.458 10.697-72.119 46.873-108.965 5.538-5.644 12.922-8.745 20.81-8.745v0zM431.315 501.608c7.716 0 14.993 2.995 20.505 8.426 5.558 5.498 8.652 12.842 8.712 20.671 0.060 7.829-2.922 15.206-8.4 20.79-22.689 23.114-33.002 43.121-30.658 59.476 1.926 13.406 12.855 25.206 24.456 37.736 16.514 17.816 37.065 39.987 36.116 73.46-0.823 29.29-17.789 56.614-50.406 81.203-12.882 9.701-31.235 7.085-40.91-5.83-9.675-12.928-7.072-31.342 5.804-41.050 17.185-12.962 26.813-25.737 27.105-35.983 0.252-9.017-7.63-17.982-20.505-31.879-16.395-17.683-34.967-37.736-39.502-69.31-5.080-35.458 10.691-72.119 46.873-108.965 5.531-5.644 12.922-8.745 20.81-8.745v0zM837.653 423.281c-19.064 0-38.613-5.485-57.032-15.85-11.541 38.214-46.548 64.131-88.095 64.131h-544.846c-45.060 0-80.691-34.144-80.691-76.216v-68.971c0-198.382 160.978-360.534 359.465-360.534 84.058 0 165.712 32.716 230.387 85.273h-0.133c48.055 42.703 84.503 94.403 105.957 152.883 21.295-16.534 48.095-25.485 74.967-25.485 67.165 0 121.801 55.007 121.801 122.385 0 67.378-54.642 122.385-121.781 122.385v0zM837.773 237.522c-21.348 0-41.036 10.797-52.663 28.214-2.862 4.29-4.256 9.409-3.958 14.562 0.843 14.449 0.83 38.247 0.757 50.18-0.020 3.373 1.255 6.594 3.479 9.124 14.668 16.627 31.74 25.047 50.85 25.047 35.359 0 64.117-28.513 64.117-63.56 0-35.047-28.075-63.566-62.584-63.566v0zM608.979 501.608c7.716 0 15 2.995 20.505 8.426 11.474 11.348 11.614 29.947 0.312 41.461-22.683 23.114-32.995 43.121-30.644 59.476 1.919 13.413 12.855 25.226 24.449 37.736 16.514 17.816 37.065 39.987 36.122 73.46-0.83 29.29-17.796 56.607-50.425 81.203-6.248 4.701-13.938 6.673-21.647 5.578-7.736-1.102-14.582-5.153-19.256-11.408-4.688-6.262-6.66-13.984-5.564-21.733 1.096-7.756 5.139-14.615 11.381-19.316 17.185-12.955 26.806-25.731 27.099-35.976 0.252-9.017-7.63-17.988-20.505-31.886-16.395-17.696-34.974-37.743-39.496-69.303-5.086-35.458 10.677-72.125 46.853-108.972 5.538-5.644 12.928-8.745 20.817-8.745v0z"  horiz-adv-x="1024" />

    
    <glyph glyph-name="del" unicode="&#58967;" d="M826.760289 69.2392c-29.971615-29.971615-78.565357-29.971615-108.537995 0L197.239711 590.221782c-29.972639 29.972639-29.971615 78.56638 0 108.537995l0 0c29.971615 29.972639 78.565357 29.972639 108.537995 0l520.982582-520.982582C856.731904 147.804557 856.731904 99.211838 826.760289 69.2392L826.760289 69.2392zM197.239711 69.2392c-29.971615 29.971615-29.972639 78.565357 0 108.537995L718.22127 698.759777c29.971615 29.972639 78.56638 29.971615 108.537995 0l0 0c29.971615-29.971615 29.971615-78.565357 0-108.537995L305.776683 69.2392C275.805068 39.267585 227.211327 39.267585 197.239711 69.2392L197.239711 69.2392z"  horiz-adv-x="1024" />

    
    <glyph glyph-name="owner" unicode="&#58917;" d="M848.3 396.3l-54.8-301.6c-2.3-12.5-14.5-22.7-27.3-22.7h-508.4c-12.8 0-24.9 10.2-27 22.8l-51.8 302.1c-4.4-0.9-9-1.3-13.6-1.3-38.3 0-69.3 31-69.3 69.3s31 69.3 69.3 69.3 69.3-31 69.3-69.3c0-12.8-3.5-24.7-9.5-35l129.9-101c10.1-7.9 22.2-4.7 27.1 7.1l95.4 230.5c-20.8 12-34.9 34.4-34.9 60.2 0 38.3 31 69.3 69.3 69.3s69.3-31 69.3-69.3c0-25.7-14-48.2-34.9-60.2l95.4-230.5c4.9-11.9 17.4-15.6 28-8.5l137 91.3c-10.9 12.3-17.5 28.4-17.5 46.1 0 38.3 31 69.3 69.3 69.3s69.3-31 69.3-69.3-31-69.3-69.3-69.3c-3.5 0-6.9 0.2-10.3 0.7z"  horiz-adv-x="1024" />

    
    <glyph glyph-name="tuotuo-logo" unicode="&#58914;" d="M54.658 499.326v48.63h82.819v35.677h60.875v-35.677h27.842v-48.63h-27.842v-29.305h23.832v-54.576h-23.832v-175.194c0-7.645-0.63-14.367-1.887-20.174-1.261-5.803-4.996-12.704-11.208-20.704-6.216-7.996-23.164-11.999-50.847-11.999h-70.314v47.992h54.505c12.583 0 18.876 7.363 18.876 22.086v83.244l-16.044-31.004c-3.934-7.645-8.181-13.203-12.741-16.671-4.564-3.471-9.792-6.3-15.69-8.494-5.899-2.196-10.894-3.291-14.983-3.291h-23.36v57.123h12.034c2.986 0 5.74 0.956 8.258 2.867 2.514 1.911 5.268 5.979 8.258 12.211l54.269 112.761v33.127h-82.819zM237.993 577.261h244.918v-50.754h-117.032l-32.089-59.035h142.987v-214.267c0-17.977-1.81-30.968-5.427-38.967-3.62-7.996-9.479-14.049-17.578-18.157-8.104-4.104-19.86-6.159-35.274-6.159h-164.46l1.18 197.705h-23.595v50.966c3.145 0.849 5.74 1.731 7.786 2.654 2.043 0.919 5.15 3.538 9.32 7.857 4.166 4.317 7.197 8.103 9.084 11.362l38.46 66.043h-58.28v50.752zM314.441 417.144v-175.832h83.527c6.761 0 11.639 1.487 14.628 4.46 2.986 2.973 4.483 7.359 4.483 13.166v158.206h-102.639zM537.888 499.326v48.63h82.819v35.677h60.875v-35.677h27.842v-48.63h-27.842v-29.305h23.831v-54.576h-23.831v-175.194c0-7.645-0.63-14.367-1.888-20.174-1.261-5.803-4.996-12.704-11.207-20.704-6.217-7.996-23.165-11.999-50.848-11.999h-70.313v47.992h54.505c12.583 0 18.876 7.363 18.876 22.086v83.244l-16.045-31.004c-3.934-7.645-8.18-13.203-12.741-16.671-4.564-3.471-9.791-6.3-15.69-8.494-5.899-2.196-10.894-3.291-14.983-3.291h-23.359v57.123h12.033c2.987 0 5.741 0.956 8.258 2.867 2.514 1.911 5.268 5.979 8.258 12.211l54.269 112.761v33.127h-82.818zM721.223 577.261h244.917v-50.754h-117.031l-32.089-59.035h142.987v-214.267c0-17.977-1.811-30.968-5.428-38.967-3.62-7.996-9.479-14.049-17.578-18.157-8.104-4.104-19.86-6.159-35.275-6.159h-164.458l1.18 197.705h-23.596v50.966c3.145 0.849 5.741 1.731 7.786 2.654 2.043 0.919 5.15 3.538 9.32 7.857 4.165 4.317 7.196 8.103 9.084 11.362l38.46 66.043h-58.279v50.752zM797.671 417.144v-175.832h83.526c6.761 0 11.639 1.487 14.629 4.46 2.986 2.973 4.483 7.359 4.483 13.166v158.206h-102.639z"  horiz-adv-x="1024" />

    
    <glyph glyph-name="arrow-down" unicode="&#58923;" d="M513.4 88.7c-9.7 0-19 4-25.5 11.2l-380.1 415.3c-12.9 14.1-12 36 2.1 48.9 14.1 12.9 35.9 12 48.8-2.1l354.6-387.4 354.7 387.4c12.9 14.1 34.8 15.1 48.8 2.1 14.1-12.9 15-34.8 2.1-48.9l-380.1-415.3c-6.5-7.1-15.7-11.2-25.4-11.2z"  horiz-adv-x="1024" />

    
    <glyph glyph-name="arrow-up" unicode="&#58924;" d="M510.6 679.301c9.7 0 19-3.999 25.5-11.2l380.1-415.3c12.9-14.1 12-36-2.099-48.9-14.1-12.9-35.9-12-48.8 2.1l-354.6 387.4-354.7-387.4c-12.9-14.1-34.8-15.1-48.8-2.1-14.1 12.9-15 34.8-2.099 48.9l380.1 415.3c6.5 7.1 15.7 11.2 25.4 11.2z"  horiz-adv-x="1024" />

    
    <glyph glyph-name="arrow-left" unicode="&#58925;" d="M216.699 382.6c0 9.7 3.999 19 11.2 25.5l415.3 380.1c14.1 12.9 36 12 48.9-2.099 12.9-14.1 12-35.9-2.1-48.8l-387.4-354.6 387.4-354.7c14.1-12.9 15.1-34.8 2.1-48.8-12.9-14.1-34.8-15-48.9-2.099l-415.3 380.1c-7.1 6.5-11.2 15.7-11.2 25.4z"  horiz-adv-x="1024" />

    
    <glyph glyph-name="arrow-right" unicode="&#58926;" d="M807.301 385.4c0-9.7-3.999-19-11.2-25.5l-415.3-380.1c-14.1-12.9-36-12-48.9 2.099-12.9 14.1-12 35.9 2.1 48.8l387.4 354.6-387.4 354.7c-14.1 12.9-15.1 34.8-2.1 48.8 12.9 14.1 34.8 15 48.9 2.099l415.3-380.1c7.1-6.5 11.2-15.7 11.2-25.4z"  horiz-adv-x="1024" />

    
    <glyph glyph-name="back" unicode="&#58927;" d="M925.8 50c-1.1-18.5-16.3-32.7-34.5-32.7h-2c-19 1.1-33.6 17.4-32.6 36.6 0.1 2.9 2.3 77.9-60.7 143.9-57.9 60.7-151.7 94.1-278.4 100v-141.4c0-13.4-14-25.4-26-31.2-4.7-2.3-9.8-3.5-14.9-3.5-7.7 0-15.3 2.6-21.6 7.6L109.8 407.8c-8.2 6.6-13 16.6-13 27.2 0 10.5 4.8 20.6 13 27.2l345.5 278.5c10.4 8.4 24.6 10 36.5 4.2 12-5.8 26-16.5 26-29.9v-146.1c65.3-6.4 193.9-31.9 290.8-133C896 344.5 935.5 214.7 925.8 50zM759.3 387C648.4 503.4 479.4 501.5 477.5 501.5c-0.1 0-0.2 0.1-0.4 0.1-0.1 0-0.2-0.1-0.3-0.1-0.5 0-0.8 0.3-1.3 0.3-17.6 0.3-32.9 15.3-33.2 33.8-0.1 6.9 2.3 13.1 5.6 18.6v91L186.7 435 448 226.2v89.6c-3.3 5.3-5.7 11.2-5.7 18 0 19.2 15.5 34.8 34.6 34.8 160 0 280.4-37.6 358.5-111.9-16.6 50.9-42 94.4-76.1 130.3z"  horiz-adv-x="1024" />

    
    <glyph glyph-name="close" unicode="&#58928;" d="M560.4 382.4l354.4-355.7c13.5-13.5 13.5-35.4 0-48.9-6.7-6.7-15.5-10.1-24.3-10.1s-17.6 3.4-24.3 10.1L511.7 333.5 157.3-22.2c-6.7-6.7-15.5-10.1-24.3-10.1s-17.6 3.4-24.3 10.1c-13.5 13.5-13.5 35.4 0 48.9L463 382.4 108.7 738c-13.5 13.5-13.5 35.4 0 48.9s35.2 13.5 48.7 0l354.4-355.7L866 786.9c13.5 13.5 35.2 13.5 48.7 0 13.4-13.5 13.4-35.4 0-48.9L560.4 382.4z"  horiz-adv-x="1024" />

    
    <glyph glyph-name="grid-squares" unicode="&#58931;" d="M859-30.1H617.4c-38.1 0-69 31-69 69V280.5c0 38.1 31 69 69 69H859c38.1 0 69-31 69-69v-241.6c0-38.1-31-69-69-69zM617.4 280.5v-241.6h241.5l0.1 241.6H617.4z m241.6 138H617.4c-38.1 0-69 31-69 69V729.1c0 38.1 31 69 69 69H859c38.1 0 69-31 69-69v-241.6c0-38-31-69-69-69zM617.4 729.1v-241.6h241.5l0.1 241.6H617.4z m-207-759.2H168.7c-38.1 0-69 31-69 69V280.5c0 38.1 31 69 69 69h241.7c38.1 0 69-31 69-69v-241.6c0-38.1-30.9-69-69-69zM168.7 280.5v-241.6h241.5l0.1 241.6H168.7z m241.7 138H168.7c-38.1 0-69 31-69 69V729.1c0 38.1 31 69 69 69h241.7c38.1 0 69-31 69-69v-241.6c0-38-30.9-69-69-69zM168.7 729.1v-241.6h241.5l0.1 241.6H168.7z"  horiz-adv-x="1024" />

    
    <glyph glyph-name="list" unicode="&#58932;" d="M893.1 350.6H339.8c-19.1 0-34.6 15.5-34.6 34.6s15.5 34.6 34.6 34.6h553.3c19.1 0 34.6-15.5 34.6-34.6s-15.5-34.6-34.6-34.6z m0 172.9H339.8c-19.1 0-34.6 15.5-34.6 34.6s15.5 34.6 34.6 34.6h553.3c19.1 0 34.6-15.5 34.6-34.6s-15.5-34.6-34.6-34.6zM201.5 143.1h-69.2c-19.1 0-34.6 15.5-34.6 34.6v69.2c0 19.1 15.5 34.6 34.6 34.6h69.2c19.1 0 34.6-15.5 34.6-34.6v-69.2c-0.1-19.1-15.6-34.6-34.6-34.6z m0 172.9h-69.2c-19.1 0-34.6 15.5-34.6 34.6v69.2c0 19.1 15.5 34.6 34.6 34.6h69.2c19.1 0 34.6-15.5 34.6-34.6v-69.2c-0.1-19.1-15.6-34.6-34.6-34.6z m0 173h-69.2c-19.1 0-34.6 15.5-34.6 34.6v69.2c0 19.1 15.5 34.6 34.6 34.6h69.2c19.1 0 34.6-15.5 34.6-34.6v-69.2c-0.1-19.1-15.6-34.6-34.6-34.6z m138.3-242.1h553.3c19.1 0 34.6-15.5 34.6-34.6s-15.5-34.6-34.6-34.6H339.8c-19.1 0-34.6 15.5-34.6 34.6s15.5 34.6 34.6 34.6z"  horiz-adv-x="1024" />

    
    <glyph glyph-name="lock" unicode="&#58933;" d="M755.1-32.2H271c-57.2 0-103.7 46.5-103.7 103.8V417.4c0 57.2 46.5 103.8 103.7 103.8h34.6v69.2c0 114.4 93.1 207.5 207.5 207.5s207.5-93.1 207.5-207.5v-69.2h34.6c57.2 0 103.8-46.5 103.8-103.8v-345.8c-0.1-57.3-46.7-103.8-103.9-103.8zM513 728.6c-76.3 0-138.3-62-138.3-138.3v-69.2h276.7v69.2c0 76.3-62.1 138.3-138.4 138.3z m276.7-311.2c0 19.1-15.5 34.6-34.6 34.6H271c-19.1 0-34.6-15.5-34.6-34.6v-345.8c0-19.1 15.5-34.6 34.6-34.6h484.2c19.1 0 34.6 15.5 34.6 34.6V417.4zM547.6 254.1v-78.8c0-19.1-15.5-34.6-34.6-34.6s-34.6 15.5-34.6 34.6v78.8c-20.6 12-34.6 34.1-34.6 59.6 0 38.1 31 69.2 69.2 69.2 38.1 0 69.2-31 69.2-69.2 0-25.6-14-47.6-34.6-59.6z"  horiz-adv-x="1024" />

    
    <glyph glyph-name="plus-circle" unicode="&#58934;" d="M807 93.7c-78.4-78.4-182.6-121.6-293.4-121.6s-215 43.2-293.4 121.6C141.7 172 98.6 276.3 98.6 387.1s43.2 215 121.6 293.4c78.3 78.4 182.6 121.6 293.4 121.6S728.7 758.9 807 680.5c78.4-78.4 121.6-182.6 121.6-293.4S885.4 172 807 93.7z m-48.9 537.9C692.8 697 606 732.9 513.6 732.9s-179.2-36-244.5-101.3c-65.4-65.3-101.3-152.1-101.3-244.5s36-179.2 101.3-244.5c65.3-65.3 152.1-101.3 244.5-101.3s179.2 36 244.5 101.3c65.3 65.3 101.3 152.2 101.3 244.5s-36 179.2-101.3 244.5z m-71.6-279.1H548.2v-138.3c0-19.1-15.5-34.6-34.6-34.6S479 195.1 479 214.2V352.5H340.7c-19.1 0-34.6 15.5-34.6 34.6s15.5 34.6 34.6 34.6H479V560c0 19.1 15.5 34.6 34.6 34.6s34.6-15.5 34.6-34.6v-138.3h138.3c19.1 0 34.6-15.5 34.6-34.6s-15.5-34.6-34.6-34.6z"  horiz-adv-x="1024" />

    
    <glyph glyph-name="check-circle" unicode="&#58935;" d="M511-30.2c-228.9 0-415 186.1-415 415S282.1 799.7 511 799.7s415-186.1 415-415-186.2-414.9-415-414.9z m0 760.8c-190.7 0-345.8-155.1-345.8-345.8S320.3 39 511 39s345.8 155.1 345.8 345.8S701.6 730.6 511 730.6z m-8.7-506.9c-6.9-7.8-16.4-11.9-26-11.9-7.6 0-15.3 2.5-21.6 7.6L281.8 357.8c-14.9 12-17.3 33.7-5.4 48.6 12 14.9 33.7 17.3 48.6 5.4l147-117.7 220.3 251.7c12.6 14.4 34.4 15.8 48.8 3.2 14.4-12.6 15.8-34.5 3.2-48.8l-242-276.5z"  horiz-adv-x="1024" />

    
    <glyph glyph-name="settings" unicode="&#58936;" d="M899 298l-78.4-10.3c-5.7-18.5-13.2-36.5-22.2-53.7l47.9-62.9c10.5-13.8 9.2-33.1-2.9-45.4l-70-70.4c-12.1-12.1-31.2-13.6-45.1-3.5L664 99.4c-17.5-9.3-35.7-16.8-54.5-22.7L599-1.9c-2.3-17.2-16.9-30-34.3-30H463.3c-17.4 0-32.1 12.9-34.3 30.2l-10.1 78.2c-18.4 5.7-36.3 13-53.5 22l-63.3-47.8c-13.7-10.4-33-9.1-45.2 3.1l-70.4 69.9c-12.1 12.1-13.6 31.2-3.6 45l47 64.4c-9.4 17.8-17.2 36.3-23 55.4l-77.5 9.6C112 300.2 99 314.9 99 332.3V433.8c0 17.4 12.9 32.1 30.2 34.3l78.2 9.9c5.9 18.9 13.6 37.1 23 54.7L182 594.5c-10.7 13.8-9.5 33.3 2.7 45.7l69.9 70.4c12.2 12.3 31.7 13.7 45.5 3.2l63.6-48.4c17.6 9.3 35.9 16.9 54.9 22.8l10.4 79.7c2.2 17.2 16.9 30.1 34.3 30.1h101.5c17.5 0 32.2-13 34.3-30.4l9.7-79.4c18.2-5.6 35.9-12.9 52.9-21.8l64.2 48.9c13.7 10.4 33 9.2 45.3-3l70.4-70c12.2-12.2 13.6-31.5 3.2-45.3l-47.9-63.7c9.4-17.6 17.2-36 23.2-55l78.8-10.3c17.2-2.2 30.1-16.9 30.1-34.3v-101.5c0-17.2-12.8-31.9-30-34.2z m-39.1 105.4l-71.6 9.4c-14.3 1.9-25.9 12.4-29.2 26.5-6.5 27.7-17.5 53.9-32.8 77.8-7.8 12.1-7.2 27.9 1.5 39.5l43.7 58.1-27.7 27.5-58.3-44.4c-11.4-8.7-26.9-9.4-39.1-1.9-23.9 14.8-49.6 25.3-76.7 31.5-14.2 3.3-24.9 15-26.7 29.5l-8.8 72.1h-40.5l-9.4-72.5c-1.9-14.4-12.5-26-26.6-29.2-27.7-6.3-54-17.2-78.1-32.4-12.2-7.7-27.8-7.1-39.4 1.7l-57.8 43.9-27.1-27.3 44-56.2c9-11.6 9.8-27.6 1.9-39.9-15.4-24.1-26.5-50.4-32.8-78.1-3.3-14.1-15-24.7-29.4-26.5l-70.9-9V363l70.3-8.7c14.5-1.8 26.3-12.5 29.5-26.7 6.2-27.5 17.1-53.8 32.4-78.2 7.5-12 7-27.4-1.3-38.8L256.3 152l28-27.8 57.6 43.4c11.4 8.6 26.9 9.3 39.1 1.8 23.9-14.8 49.8-25.5 76.9-31.6 14.1-3.2 24.8-14.9 26.7-29.3l9.2-71h40.8l9.5 71.4c1.9 14.4 12.5 25.9 26.6 29.2 27.4 6.3 53.4 17.1 77.3 32.1 12 7.6 27.5 7 38.9-1.4l58.6-43.1 27.7 27.9-43.6 57.2c-8.7 11.4-9.4 27.1-1.8 39.3 14.9 23.9 25.7 49.8 31.9 77 3.2 14.1 14.9 24.8 29.2 26.6l71.2 9.3v40.4zM514 209.7c-95.3 0-172.9 77.6-172.9 172.9 0 95.3 77.6 172.9 172.9 172.9s173-77.6 173-172.9c0-95.3-77.6-172.9-173-172.9z m0 276.7c-57.2 0-103.8-46.5-103.8-103.8 0-57.2 46.5-103.8 103.8-103.8 57.2 0 103.8 46.5 103.8 103.8 0 57.2-46.6 103.8-103.8 103.8z"  horiz-adv-x="1024" />

    
    <glyph glyph-name="folder" unicode="&#58937;" d="M859.8 38.8H168.2c-38.1 0-69.2 30.8-69.2 68.7V657.4c0 37.9 31 68.8 69.2 68.8h242.1c1.1 0 2-0.5 3-0.6 2.4-0.2 4.6-0.7 6.9-1.4 2.2-0.7 4.3-1.5 6.4-2.6 0.9-0.5 2-0.6 2.9-1.2l96.9-64.2h333.5c38.1 0 69.2-29.6 69.2-67.5v-481.1c-0.1-38-31.1-68.8-69.3-68.8z m0 549.9H514c-4 0-8 1-11.9 2.4-1.2 0.4-2.3 1-3.5 1.6-1.2 0.6-2.6 1-3.8 1.8l-95 62.9H168.2v-554.5h691.7V588.7z"  horiz-adv-x="1024" />

    
    <glyph glyph-name="cloud-upload" unicode="&#58938;" d="M742.2 125.9h-90.8c-19.1 0-34.6 15.5-34.6 34.6s15.5 34.6 34.6 34.6h90.8c58 0 116.7 45.4 116.7 132 0 91.9-75.5 166.7-168.3 166.7-3 0-6.1-0.2-9.1-0.6-16-1.9-31.1 7.7-36.4 22.9-27.2 76.9-100.6 128.6-182.7 128.6-106.8 0-193.6-86-193.6-191.8 0-8.8 0.8-17.7 2.3-27.4 2.8-16.8-7.2-33.1-23.3-38.4-48.1-15.8-80.4-60.1-80.4-110.3 0-75.8 79.4-81.7 103.8-81.7H375c19.1 0 34.5-15.5 34.5-34.6S394 125.9 375 125.9H271c-103.4 0-172.9 60.7-172.9 150.9 0 70.6 39.9 133.9 101.7 165.1-0.2 3.6-0.2 7.3-0.2 10.9 0 143.9 117.9 261 262.8 261 102.7 0 195.5-59.8 238.3-151.1 126.3-5.2 227.5-108.9 227.5-235.6-0.1-114.8-80-201.2-186-201.2zM384.9 323.2l103.7 103.7c3.2 3.2 7 5.7 11.3 7.5 4.2 1.7 8.7 2.6 13.1 2.7h0.1c4.5 0 9-0.9 13.2-2.7 4.3-1.8 8.1-4.3 11.3-7.5l103.7-103.7c13.5-13.5 13.5-35.4 0-48.9-6.7-6.7-15.6-10.1-24.5-10.1s-17.7 3.4-24.5 10.1L547.6 319v-227.8c0-19.1-15.5-34.6-34.6-34.6s-34.6 15.5-34.6 34.6V319l-44.7-44.7c-13.5-13.5-35.4-13.5-48.9 0s-13.5 35.4 0.1 48.9z"  horiz-adv-x="1024" />

    
    <glyph glyph-name="calendar" unicode="&#58939;" d="M859.2-32.2H167.5c-38.1 0-69.2 31-69.2 69.2V659.4c0 38.1 31.1 69.2 69.2 69.2h172.9v34.6c0 19.1 15.5 34.6 34.6 34.6s34.6-15.5 34.6-34.6v-34.6h207.5v34.6c0 19.1 15.5 34.6 34.6 34.6s34.6-15.5 34.6-34.6v-34.6h172.9c38.1 0 69.2-31 69.2-69.2v-622.5c-0.1-38.1-31.1-69.1-69.2-69.1z m-173 691.6v-34.6c0-19.1-15.5-34.6-34.6-34.6S617 605.7 617 624.8v34.6H409.6v-34.6c0-19.1-15.5-34.6-34.6-34.6s-34.6 15.5-34.6 34.6v34.6H167.5v-622.5h691.6l0.1 622.5h-173z m69.2-484.1h-69.2c-19.1 0-34.6 15.5-34.6 34.6V279c0 19.1 15.5 34.6 34.6 34.6h69.2c19.1 0 34.6-15.5 34.6-34.6v-69.2c0-19-15.5-34.5-34.6-34.5z m0 207.5h-69.2c-19.1 0-34.6 15.5-34.6 34.6v69.2c0 19.1 15.5 34.6 34.6 34.6h69.2c19.1 0 34.6-15.5 34.6-34.6v-69.2c0-19.1-15.5-34.6-34.6-34.6zM547.9 175.3h-69.2c-19.1 0-34.6 15.5-34.6 34.6V279c0 19.1 15.5 34.6 34.6 34.6h69.2c19.1 0 34.6-15.5 34.6-34.6v-69.2c0-19-15.5-34.5-34.6-34.5z m0 207.5h-69.2c-19.1 0-34.6 15.5-34.6 34.6v69.2c0 19.1 15.5 34.6 34.6 34.6h69.2c19.1 0 34.6-15.5 34.6-34.6v-69.2c0-19.1-15.5-34.6-34.6-34.6zM340.4 175.3h-69.2c-19.1 0-34.6 15.5-34.6 34.6V279c0 19.1 15.5 34.6 34.6 34.6h69.2c19.1 0 34.6-15.5 34.6-34.6v-69.2c0-19-15.5-34.5-34.6-34.5z m0 207.5h-69.2c-19.1 0-34.6 15.5-34.6 34.6v69.2c0 19.1 15.5 34.6 34.6 34.6h69.2c19.1 0 34.6-15.5 34.6-34.6v-69.2c0-19.1-15.5-34.6-34.6-34.6z"  horiz-adv-x="1024" />

    
    <glyph glyph-name="calendar-check" unicode="&#58940;" d="M859.2-30.2H167.5c-38.1 0-69.2 31-69.2 69.2V661.5c0 38.1 31 69.2 69.2 69.2h138.3v34.6c0 19.1 15.5 34.6 34.6 34.6s34.6-15.5 34.6-34.6v-34.6h276.7v34.6c0 19.1 15.5 34.6 34.6 34.6s34.6-15.5 34.6-34.6v-34.6h138.3c38.1 0 69.2-31 69.2-69.2V39c0-38.1-31.1-69.2-69.2-69.2zM720.9 661.5v-34.6c0-19.1-15.5-34.6-34.6-34.6s-34.6 15.5-34.6 34.6v34.6H375v-34.6c0-19.1-15.5-34.6-34.6-34.6s-34.6 15.5-34.6 34.6v34.6H167.5V39h691.6l0.1 622.5H720.9zM499.6 189.4c-6.4-7.4-15.6-11.8-25.4-12h-0.8c-9.5 0-18.6 3.9-25.2 10.9l-98.4 104.3c-13.1 13.9-12.5 35.8 1.4 48.9 13.9 13.1 35.8 12.5 48.9-1.4l72-76.4L625.4 442c12.5 14.5 34.3 16.1 48.8 3.7 14.5-12.4 16.2-34.3 3.7-48.8L499.6 189.4z"  horiz-adv-x="1024" />

    
    <glyph glyph-name="user-add" unicode="&#58941;" d="M893.5 73.6h-69.2v-69.2c0-19.1-15.5-34.6-34.6-34.6s-34.6 15.5-34.6 34.6v69.2H686c-19.1 0-34.6 15.5-34.6 34.6s15.5 34.6 34.6 34.6h69.2V212c0 19.1 15.5 34.6 34.6 34.6s34.6-15.5 34.6-34.6v-69.2h69.2c19.1 0 34.6-15.5 34.6-34.6s-15.7-34.6-34.7-34.6zM695.9 245.1c18.3-5.5 28.7-24.8 23.2-43.1-4.5-15-18.2-24.7-33.1-24.7-3.3 0-6.6 0.5-10 1.5l-69.2 20.8c-1.2 0.3-2 1.2-3.1 1.7-2.1 0.9-4.1 1.9-6 3.3-2 1.3-3.7 2.8-5.4 4.5-0.8 0.8-1.9 1.3-2.7 2.2-0.6 0.8-0.8 1.8-1.3 2.7-1.3 2-2.3 4-3.2 6.3-0.8 2-1.5 4-1.9 6.1-0.4 2.2-0.5 4.3-0.5 6.5 0 2.4 0.2 4.6 0.7 6.9 0.2 1 0 2 0.3 3 0.3 1.2 1.2 2 1.7 3.1 0.9 2.2 1.9 4.1 3.3 6.1 1.3 2 2.8 3.7 4.5 5.3 0.9 0.8 1.3 1.9 2.2 2.7 89.8 71.2 90.7 200 90.7 201.3l-0.1 148.9c-12.9 63.5-94.3 120.7-172.8 120.7-78.4-0.1-159.9-57.3-172.8-120.8l-0.1-148.8c0-1.2 1.6-130.7 90.7-201.4 7.5-6 11.9-14.5 12.8-23.3 0.3-2.5-0.3-4.8-0.6-7.2-0.2-2 0-4-0.6-6-1.2-4.4-3.3-8.5-6.1-12.1-2.8-3.5-6.3-6.5-10.4-8.8L167.2 60.1V39h449.6c19.1 0 34.6-15.5 34.6-34.6s-15.5-34.6-34.6-34.6H158c-33 0-59.9 26.9-59.9 59.9v50.8c0 12.6 6.9 24.2 17.9 30.3l235.7 129.6c-79.7 92-80.7 215-80.7 220.8l0.1 152 0.5 5.9C290.3 727.2 411.5 799.9 513 799.9h0.1c101.5 0 222.6-72.6 241.3-180.7l0.5-5.9 0.1-152.1c0-5.7-1.1-121.1-73.5-211.9l14.4-4.2z"  horiz-adv-x="1024" />

    
    <glyph glyph-name="yanzheng" unicode="&#58942;" d="M860.5 454.7c0-3.6-7.7-363.4-335.6-482.1-0.2-0.1-0.5 0-0.7-0.1-3.6-1.2-7.3-2-11.2-2-3.9 0-7.6 0.8-11.2 2-0.2 0.1-0.5 0-0.7 0.1-327.9 118.7-335.5 478.5-335.6 482.1-0.2 19.1-0.4 50.4-0.4 69.6v103.8c0 38.1 31.2 69.2 69.6 69.2h34.8c146.1 0 211.9 86 214.6 89.6 6.6 8.8 16.6 13.1 26.9 13.5 11.8 1 23.7-3.4 31-13.6 2.6-3.5 68.4-89.4 214.5-89.4h34.8c38.4 0 69.6-31.1 69.6-69.2v-103.8c0-19.2-0.2-50.6-0.4-69.7zM791.3 628.1h-34.8c-127.1 0-205.6 54.2-243.5 89.2-37.9-35-116.4-89.2-243.5-89.2h-34.8v-103.8c0-18.9 0.2-49.9 0.4-68.8 0.2-12.6 8.1-306.3 277.9-412.6 270.9 107 277.9 409.5 277.9 412.6 0.2 18.9 0.4 49.9 0.4 68.8v103.8zM526.5 261.5c-5.7-7.7-14.3-12.7-23.9-13.8-1.4-0.2-2.7-0.2-4.1-0.2-8.1 0-16 2.9-22.3 8.1l-124.6 103.7c-14.7 12.3-16.7 34.1-4.3 48.8 12.3 14.6 34.3 16.6 49 4.3l96.2-80.1 131.8 178c11.4 15.4 33.2 18.7 48.6 7.3 15.5-11.3 18.8-33 7.4-48.4l-153.8-207.7z"  horiz-adv-x="1024" />

    
    <glyph glyph-name="email" unicode="&#58944;" d="M825.3 71.6H202.8C145.6 71.6 99 118.1 99 175.3v415c0 57.2 46.5 103.8 103.7 103.8h622.5c57.2 0 103.8-46.5 103.8-103.8v-415c0-57.2-46.5-103.7-103.7-103.7z m-622.5 69.2h622.5c19.1 0 34.6 15.5 34.6 34.6v408l-324.1-262c-6.3-5.1-14-7.7-21.7-7.7-7.7 0-15.4 2.6-21.7 7.7l-324.1 262v-408c-0.1-19.1 15.4-34.6 34.5-34.6z m598.5 484.1H226.8L514 392.7l287.3 232.2z"  horiz-adv-x="1024" />

    
    <glyph glyph-name="plus" unicode="&#58945;" d="M893.7 348.3H547.9v-345.8c0-19.1-15.5-34.6-34.6-34.6s-34.6 15.5-34.6 34.6V348.3H132.9c-19.1 0-34.6 15.5-34.6 34.6s15.5 34.6 34.6 34.6h345.8V763.3c0 19.1 15.5 34.6 34.6 34.6s34.6-15.5 34.6-34.6v-345.8h345.8c19.1 0 34.6-15.5 34.6-34.6 0-19.2-15.5-34.6-34.6-34.6z"  horiz-adv-x="1024" />

    
    <glyph glyph-name="more-2-copy" unicode="&#59004;" d="M230.742 472.41c-49.621 0-90.001-40.38-90-90s40.38-90.001 90-90 90.001 40.38 90 90-40.38 90.001-90 90zM500.742 472.41c-49.621 0-90.001-40.38-90-90s40.38-90.001 90-90 90.001 40.38 90 90-40.38 90.001-90 90zM770.742 472.41c-49.621 0-90.001-40.38-90-90s40.38-90.001 90-90 90.001 40.38 90 90-40.38 90.001-90 90z"  horiz-adv-x="1024" />

    
    <glyph glyph-name="user" unicode="&#58947;" d="M868.3-30.2H158c-33 0-59.9 26.9-59.9 60v50.7c0 12.1 6.4 23.4 16.8 29.6l237.6 142.6c-80.4 90-81.5 210.7-81.5 216.4l0.1 148.1c0 2 0.2 4 0.6 6 18.7 105.7 140 176.7 241.5 176.7h0.2c101.4 0 222.5-70.9 241.3-176.6 0.4-2 0.6-4 0.6-6l0.1-148.1c0-5.7-1-126.5-81.5-216.4l237.6-142.5c10.4-6.2 16.8-17.5 16.8-29.6v-50.8c-0.1-33.2-27-60.1-60-60.1z m-9.3 91.1l-260 156c-3 1.8-5.2 4.3-7.5 6.8-0.6 0.7-1.5 0.9-2.1 1.7-0.1 0.1-0.1 0.3-0.2 0.4-1.9 2.5-2.9 5.3-4 8.1-0.6 1.4-1.5 2.6-1.9 4-0.6 2.2-0.3 4.4-0.4 6.7-0.1 2.2-0.6 4.4-0.3 6.5 0.2 1.5 1 2.9 1.5 4.4 0.8 2.9 1.5 5.8 3 8.4 0.1 0.1 0.1 0.3 0.2 0.4 1.1 1.9 2.9 3.1 4.3 4.8 1.4 1.6 2.4 3.5 4.2 4.8 89.5 69.1 90.3 193.9 90.3 195.1l-0.1 145c-13 61.5-94.4 116.8-172.8 116.8-78.5 0-159.9-55.4-172.8-116.9l-0.1-144.8c0-1.2 1.6-126.6 90.3-195.1 1.8-1.4 2.8-3.3 4.3-4.9 1.4-1.6 3.1-2.8 4.2-4.7 0.1-0.1 0.1-0.3 0.2-0.4 1.5-2.6 2.2-5.5 2.9-8.3 0.4-1.5 1.3-2.9 1.5-4.5 0.3-2.1-0.2-4.2-0.3-6.3-0.1-2.3 0.1-4.6-0.4-6.9-0.4-1.4-1.3-2.6-1.8-3.9-1.1-2.9-2.2-5.7-4.1-8.3-0.1-0.1-0.1-0.2-0.2-0.4-1.3-1.7-3-2.6-4.6-3.9-1.7-1.5-3-3.4-5-4.6l-260-156v-22H859v22z"  horiz-adv-x="1024" />

    
    <glyph glyph-name="circle" unicode="&#58948;" d="M511-30.2c-228.9 0-415 186.1-415 415S282.1 799.7 511 799.7s415-186.1 415-415-186.2-414.9-415-414.9z m0 760.8c-190.7 0-345.8-155.1-345.8-345.8S320.3 39 511 39s345.8 155.1 345.8 345.8S701.6 730.6 511 730.6z"  horiz-adv-x="1024" />

    
    <glyph glyph-name="time" unicode="&#58950;" d="M511-30.2c-228.8 0-415 186.1-415 415s186.1 415 415 415 415-186.1 415-415-186.2-415-415-415z m0 760.7c-190.7 0-345.8-155.1-345.8-345.8S320.3 39 511 39s345.8 155.1 345.8 345.8S701.6 730.5 511 730.5z m138.3-518.6c-8.9 0-17.7 3.4-24.4 10.1L486.5 360.3c-3.2 3.2-5.7 7-7.5 11.3-1.8 4.2-2.7 8.7-2.7 13.2v242c0 19.1 15.5 34.6 34.6 34.6s34.6-15.5 34.6-34.6v-227.7l128.2-128.2c13.5-13.5 13.5-35.4 0-48.9-6.7-6.8-15.6-10.1-24.4-10.1z"  horiz-adv-x="1024" />

    
    <glyph glyph-name="download" unicode="&#58951;" d="M856.6-29.7H165.4c-38.1 0-69.1 31-69.1 69.1V246.7c0 19.1 15.4 34.5 34.6 34.5s34.6-15.4 34.6-34.5v-207.3h691.2V246.7c0 19.1 15.4 34.5 34.6 34.5s34.6-15.4 34.6-34.5v-207.3c-0.2-38.1-31.2-69.1-69.3-69.1zM535.5 188.1c-3.2-3.2-7-5.7-11.3-7.5-4.2-1.8-8.7-2.7-13.2-2.7s-9 0.9-13.2 2.7c-4.2 1.7-7.9 4.2-11.1 7.4l-0.1 0.1-0.1 0.1-172.7 172.2c-13.5 13.5-13.5 35.3-0.1 48.8 13.5 13.5 35.4 13.5 48.9 0.1l113.8-113.6V765.2c0 19.1 15.4 34.5 34.6 34.5s34.6-15.4 34.6-34.5v-469.4l113.8 113.6c13.5 13.4 35.4 13.5 48.9-0.1 13.5-13.5 13.5-35.4-0.1-48.8L535.5 188.1z"  horiz-adv-x="1024" />

    
    <glyph glyph-name="chart" unicode="&#58953;" d="M879.9-36.6H704.2c-19.4 0-35.1 15.7-35.1 35.1V771.4c0 19.4 15.7 35.1 35.1 35.1h175.7c19.4 0 35.1-15.7 35.1-35.1v-772.9c0-19.3-15.7-35.1-35.1-35.1z m-35.2 772.9H739.3v-702.6h105.4V736.3zM598.8-36.6H423.2c-19.4 0-35.1 15.7-35.1 35.1V349.9c0 19.4 15.7 35.1 35.1 35.1h175.7c19.4 0 35.1-15.7 35.1-35.1v-351.3c0-19.4-15.7-35.2-35.2-35.2z m-35.1 351.3H458.3v-281h105.4v281zM317.8-36.6H142.1c-19.4 0-35.1 15.7-35.1 35.1v527c0 19.4 15.7 35.1 35.1 35.1h175.7c19.4 0 35.1-15.7 35.1-35.1v-527c0-19.3-15.7-35.1-35.1-35.1z m-35.1 527H177.3v-456.7h105.4V490.4z"  horiz-adv-x="1024" />

    
    <glyph glyph-name="users" unicode="&#58954;" d="M746.1819733333334-38.92565333333323H77.68240987654326c-31.06891851851852 0-56.441868641975304 25.243496296296296-56.441868641975304 56.441868641975304v47.63900839506172c0 11.391936790123456 5.954876049382715 22.00715061728395 15.793366913580243 27.96202666666667l223.69621333333336 134.11416493827159c-75.73048888888889 84.53334913580247-76.63666567901235 198.06435555555555-76.63666567901235 203.50141629629624l0.12945382716049383 139.16286419753087c0 1.9418074074074074 0.12945382716049383 3.754160987654321 0.5178153086419753 5.695968395061728 17.60572049382716 99.42053925925924 131.7839960493827 166.0892602469136 227.32092049382717 166.0892602469136h0.12945382716049383c95.40747061728395 0 209.456292345679-66.66872098765431 227.1914666666666-166.0892602469136 0.3883614814814814-1.8123535802469135 0.5178153086419753-3.754160987654321 0.5178153086419753-5.695968395061728l0.12945382716049383-139.16286419753087c0-5.307606913580246-1.0356306172839507-118.96806716049382-76.63666567901235-203.50141629629624l223.69621333333336-133.9847111111111c9.83849086419753-5.825422222222222 15.793366913580243-16.440636049382714 15.793366913580243-27.832572839506174V17.645669135802336c-0.25890765432098767-31.327826172839504-25.631857777777782-56.57132246913581-56.70077629629629-56.57132246913581z m-8.673406419753087 85.69843358024691l-244.66773333333327 146.6711861728395c-2.847984197530864 1.6828997530864198-4.919245432098765 4.013068641975308-6.9905066666666675 6.343237530864197-0.6472691358024691 0.6472691358024691-1.423992098765432 0.9061767901234568-2.0712612345679013 1.6828997530864198-0.12945382716049383 0.12945382716049383-0.12945382716049383 0.25890765432098767-0.12945382716049383 0.3883614814814814-1.8123535802469135 2.330168888888889-2.7185303703703703 4.919245432098765-3.754160987654321 7.637775802469136-0.5178153086419753 1.2945382716049383-1.423992098765432 2.4596227160493824-1.8123535802469135 3.754160987654321-0.5178153086419753 2.0712612345679013-0.25890765432098767 4.142522469135803-0.3883614814814814 6.343237530864197-0.12945382716049383 2.0712612345679013-0.6472691358024691 4.142522469135803-0.3883614814814814 6.08432987654321 0.25890765432098767 1.2945382716049383 0.9061767901234568 2.5890765432098766 1.2945382716049383 3.883614814814815 0.7767229629629628 2.7185303703703703 1.423992098765432 5.566514567901233 2.847984197530864 8.026137283950616 0.12945382716049383 0.12945382716049383 0.12945382716049383 0.25890765432098767 0.12945382716049383 0.3883614814814814 1.0356306172839507 1.6828997530864198 2.5890765432098766 2.847984197530864 3.883614814814815 4.271976296296296 1.423992098765432 1.5534459259259257 2.330168888888889 3.3657995061728396 4.142522469135803 4.660337777777778 84.27444148148149 64.98582123456791 85.05116444444444 182.2709886419753 85.05116444444444 183.56552691358024l-0.12945382716049383 136.1854261728395c-12.16865975308642 57.865860740740736-88.80532543209875 109.90629925925926-162.72346074074076 109.90629925925926-73.91813530864196 0-150.55480098765432-52.16989234567902-162.72346074074076-109.90629925925926V430.6033777777777c0-1.1650844444444446 1.5534459259259257-119.0975209876543 85.05116444444444-183.4360730864197 1.8123535802469135-1.2945382716049383 2.7185303703703703-3.236345679012345 4.142522469135803-4.789791604938272 1.2945382716049383-1.423992098765432 2.847984197530864-2.5890765432098766 3.883614814814815-4.271976296296296 0.12945382716049383-0.12945382716049383 0.12945382716049383-0.25890765432098767 0.12945382716049383-0.3883614814814814 1.423992098765432-2.4596227160493824 2.0712612345679013-5.307606913580246 2.847984197530864-8.026137283950616 0.3883614814814814-1.2945382716049383 1.1650844444444446-2.5890765432098766 1.2945382716049383-3.883614814814815 0.25890765432098767-1.9418074074074074-0.25890765432098767-4.013068641975308-0.3883614814814814-6.08432987654321-0.12945382716049383-2.200715061728395 0.12945382716049383-4.271976296296296-0.3883614814814814-6.343237530864197-0.3883614814814814-1.2945382716049383-1.2945382716049383-2.4596227160493824-1.6828997530864198-3.624707160493827-1.0356306172839507-2.7185303703703703-2.0712612345679013-5.4370607407407405-3.883614814814815-7.76722962962963-0.12945382716049383-0.12945382716049383-0.12945382716049383-0.25890765432098767-0.25890765432098767-0.3883614814814814-1.2945382716049383-1.5534459259259257-2.9774380246913577-2.4596227160493824-4.40143012345679-3.883614814814815-1.5534459259259257-1.423992098765432-2.7185303703703703-2.9774380246913577-4.530883950617284-4.142522469135803l-244.66773333333327-146.6711861728395v-20.712612345679013h651.1527506172839v20.58315851851852h0.12945382716049383zM546.8230795061727 777.4101807407407c-2.9774380246913577 17.60572049382716 8.932314074074075 34.434718024691364 26.667488395061735 37.412156049382716 12.815928888888891 2.0712612345679013 25.37295012345679 3.236345679012345 37.412156049382716 3.236345679012345 95.14856296296296 0.9061767901234568 210.75083061728387-66.40981333333332 228.35655111111112-166.21871407407406 0.3883614814814814-1.9418074074074074 0.5178153086419753-3.754160987654321 0.5178153086419753-5.695968395061728l0.12945382716049383-139.16286419753087c0-5.4370607407407405-0.9061767901234568-118.96806716049382-76.63666567901235-203.50141629629624l223.69621333333336-133.8552572839506c9.83849086419753-5.954876049382715 15.793366913580243-16.57008987654321 15.793366913580243-27.96202666666667V94.02342716049384c0-31.19837234567901-25.37295012345679-56.441868641975304-56.441868641975304-56.441868641975304h-70.94069728395061c-19.029712592592592 0-34.82307950617283 16.052274567901232-33.26963358024691 35.081987160493824 1.2945382716049383 16.828997530864196 15.405005432098765 29.903834074074073 32.492910617283954 29.903834074074073h63.04401382716049v20.712612345679013l-244.66773333333327 146.6711861728395c-2.847984197530864 1.6828997530864198-4.919245432098765 4.013068641975308-6.9905066666666675 6.343237530864197-0.6472691358024691 0.7767229629629628-1.423992098765432 0.9061767901234568-2.0712612345679013 1.6828997530864198 0 0.12945382716049383 0 0.25890765432098767-0.12945382716049383 0.3883614814814814-1.6828997530864198 2.4596227160493824-2.7185303703703703 5.0486992592592586-3.754160987654321 7.76722962962963-0.5178153086419753 1.2945382716049383-1.423992098765432 2.4596227160493824-1.8123535802469135 3.754160987654321-0.5178153086419753 2.0712612345679013-0.25890765432098767 4.142522469135803-0.3883614814814814 6.343237530864197-0.12945382716049383 2.0712612345679013-0.6472691358024691 4.142522469135803-0.3883614814814814 6.08432987654321 0.12945382716049383 1.2945382716049383 0.9061767901234568 2.5890765432098766 1.2945382716049383 3.883614814814815 0.6472691358024691 2.7185303703703703 1.2945382716049383 5.566514567901233 2.847984197530864 8.026137283950616 0 0.12945382716049383 0 0.25890765432098767 0.12945382716049383 0.3883614814814814 1.0356306172839507 1.6828997530864198 2.5890765432098766 2.7185303703703703 3.883614814814815 4.142522469135803 1.423992098765432 1.5534459259259257 2.330168888888889 3.3657995061728396 4.142522469135803 4.789791604938272C773.2378232098765 387.8836148148148 774.7912691358024 505.81605135802465 774.7912691358024 506.98113580246894V643.0371081481481c-12.16865975308642 57.736406913580254-88.80532543209875 109.90629925925926-162.72346074074076 109.90629925925926-8.932314074074075 0-18.252989629629628-0.7767229629629628-27.703119012345677-2.330168888888889-17.86462814814815-3.236345679012345-34.56417185185185 8.932314074074075-37.54160987654321 26.796942222222224z"  horiz-adv-x="1024" />

    
    <glyph glyph-name="information" unicode="&#58884;" d="M898.219970703125 248.47842407226562V735.6229248046875c0 38.7960205078125-31.451934814453118 70.2520751953125-70.2520751953125 70.2520751953125H195.6909790039062C156.89578247070312 805.875 125.43807983398438 774.4189453125 125.43807983398438 735.6229248046875v-702.5289916992188c0-38.79931640625001 31.457702636718746-70.25454711914064 70.25289916992188-70.25454711914064l414.3554077148438 0.823974609375c11.168975830078125-2.28240966796875 23.228668212890625 0.903900146484375 31.896881103515618 9.571289062500002l246.33132934570312 245.50570678710938c8.110382080078125 8.113677978515625 11.423583984375 19.196136474609375 9.94537353515625 29.738067626953125zM652.3344116210938 82.14596557617176V208.72576904296875h126.58145141601561L652.3344116210938 82.14596557617176z m-61.1883544921875 153.46527099609375c0.0032958984374999996-0.16809082031249997 0.0032958984374999996-67.6746826171875 0-202.5189514160156H222.5772705078125c-19.413665771484375 0-35.12603759765625 15.709899902343752-35.12603759765625 35.12603759765625v641.3406372070312c0 19.415313720703125 15.71319580078125 35.126861572265625 35.12603759765625 35.126861572265625h579.3258361816406c19.416961669921875 0 35.127685546875-15.7115478515625 35.127685546875-35.126861572265625v-438.8200378417969H626.2720947265624c-19.413665771484375 0.0008239746093749999-35.12603759765625-15.710723876953125-35.12603759765625-35.127685546875zM722.2651367187499 655.087646484375H300.75762939453125c-19.41448974609375 0-35.12603759765625-14.740905761718752-35.12603759765625-32.958984375 0-18.21725463867188 15.7115478515625-32.958984375 35.12603759765625-32.958984375h421.50750732421875c19.4161376953125 0 35.125213623046875 14.741729736328123 35.125213623046875 32.958984375 0 18.21807861328125-15.708251953124998 32.958984375-35.125213623046875 32.958984375zM722.2651367187499 521.603759765625H300.75762939453125c-19.41448974609375 0-35.12603759765625-14.740905761718752-35.12603759765625-32.958984375 0-18.21725463867188 15.7115478515625-32.958984375 35.12603759765625-32.958984375h421.50750732421875c19.4161376953125 0 35.125213623046875 14.741729736328123 35.125213623046875 32.958984375 0 18.21807861328125-15.708251953124998 32.958984375-35.125213623046875 32.958984375zM476.38616943359375 388.119873046875H300.75762939453125c-19.41448974609375 0-35.12603759765625-14.740905761718752-35.12603759765625-32.958984375 0-18.21725463867188 15.7115478515625-32.958984375 35.12603759765625-32.958984375h175.62854003906247c19.4161376953125 0 35.125213623046875 14.741729736328123 35.125213623046875 32.958984375 0 18.21807861328125-15.708251953124998 32.958984375-35.12603759765625 32.958984375z"  horiz-adv-x="1024" />

    


  </font>
</defs>
</svg>
